<svg width="8" height="20" viewBox="0 0 8 20" fill="none" xmlns="http://www.w3.org/2000/svg">
<path fill-rule="evenodd" clip-rule="evenodd" d="M1.29279 14.707C1.10532 14.5195 1 14.2652 1 14C1 13.7349 1.10532 13.4806 1.29279 13.293L4.58579 10L1.29279 6.70704C1.11063 6.51844 1.00983 6.26584 1.01211 6.00364C1.01439 5.74144 1.11956 5.49063 1.30497 5.30522C1.49038 5.11981 1.74119 5.01465 2.00339 5.01237C2.26558 5.01009 2.51818 5.11088 2.70679 5.29304L6.70679 9.29304C6.89426 9.48057 6.99957 9.73488 6.99957 10C6.99957 10.2652 6.89426 10.5195 6.70679 10.707L2.70679 14.707C2.51926 14.8945 2.26495 14.9998 1.99979 14.9998C1.73462 14.9998 1.48031 14.8945 1.29279 14.707Z" fill="white"/>
</svg>
