<svg width="20" height="20" viewBox="0 0 20 20" fill="none" xmlns="http://www.w3.org/2000/svg">
<path d="M17.5 17.5H14.1667V11.875C14.1667 10.9917 13.175 10.2583 12.2917 10.2583C11.4083 10.2583 10.8333 10.9917 10.8333 11.875V17.5H7.5V7.5H10.8333V9.16667C11.3833 8.275 12.8 7.7 13.75 7.7C15.8333 7.7 17.5 9.4 17.5 11.4583V17.5ZM5.83333 17.5H2.5V7.5H5.83333V17.5ZM4.16667 2.5C4.60869 2.5 5.03262 2.67559 5.34518 2.98816C5.65774 3.30072 5.83333 3.72464 5.83333 4.16667C5.83333 4.60869 5.65774 5.03262 5.34518 5.34518C5.03262 5.65774 4.60869 5.83333 4.16667 5.83333C3.72464 5.83333 3.30072 5.65774 2.98816 5.34518C2.67559 5.03262 2.5 4.60869 2.5 4.16667C2.5 3.72464 2.67559 3.30072 2.98816 2.98816C3.30072 2.67559 3.72464 2.5 4.16667 2.5Z" fill="#718096"/>
</svg>
