<svg width="140" height="40" viewBox="0 0 140 40" fill="none" xmlns="http://www.w3.org/2000/svg">
<path d="M25.8984 38.9127C25.8211 38.8146 25.7098 38.7489 25.5865 38.7288C23.258 38.2346 21.02 37.3834 18.9517 36.2052C14.7045 33.7337 11.997 29.9944 11.893 25.7352C11.8636 24.1113 12.1984 22.5015 12.8728 21.0241C13.3048 20.0642 15.6243 16.6249 16.0083 15.997C17.588 13.5215 17.0801 13.6774 14.8565 10.586L11.6571 5.84689L9.49347 2.69148C8.25448 3.53527 7.08072 4.47107 5.98213 5.49096C3.74424 7.73609 2.05739 10.4695 1.05409 13.4765C0.0507853 16.4835 -0.241648 19.6822 0.199762 22.8213C0.641172 25.9604 1.8044 28.9544 3.59808 31.5681C5.39175 34.1818 7.76701 36.344 10.5373 37.8849C3.41061 32.6619 0.159213 24.8313 2.8867 16.9328C3.63113 14.8132 4.72022 12.8309 6.1101 11.0659L8.45366 14.5133C8.58799 14.7128 8.65501 14.95 8.64493 15.1903C8.63486 15.4307 8.54822 15.6614 8.39767 15.849C7.27863 17.2216 6.40588 18.7776 5.81816 20.4482C2.82272 29.1425 10.9172 38.1489 19.4676 39.6166C21.1073 39.8965 24.0947 40.2085 25.6385 39.8125C25.7293 39.7879 25.8123 39.7403 25.8794 39.6744C25.9465 39.6084 25.9955 39.5262 26.0216 39.4358C26.0477 39.3453 26.0501 39.2497 26.0285 39.1581C26.0069 39.0665 25.9621 38.982 25.8984 38.9127Z" fill="white"/>
<path d="M15.1056 1.08727C15.1829 1.18542 15.2942 1.25106 15.4175 1.27124C17.7456 1.76537 19.9833 2.6166 22.0513 3.79476C26.2978 6.2663 29.0049 10.0056 29.1089 14.2648C29.1383 15.8887 28.8036 17.4985 28.1292 18.9759C27.6973 19.9357 25.3781 23.3751 24.9943 24.003C23.4148 26.4785 23.9226 26.3226 26.1459 29.414L29.3448 34.1531L31.5081 37.3085C32.7469 36.4647 33.9204 35.5289 35.0189 34.509C37.2564 32.2639 38.943 29.5305 39.9461 26.5235C40.9493 23.5165 41.2417 20.3178 40.8003 17.1787C40.359 14.0396 39.1959 11.0456 37.4025 8.4319C35.6091 5.8182 33.2342 3.65597 30.4644 2.11508C37.59 7.3381 40.8409 15.1686 38.1138 23.0672C37.3695 25.1868 36.2806 27.1691 34.8909 28.9341L32.5477 25.4867C32.4134 25.2872 32.3464 25.05 32.3565 24.8096C32.3665 24.5693 32.4532 24.3385 32.6037 24.151C33.7226 22.7784 34.5952 21.2224 35.1828 19.5518C38.1778 10.8574 30.0845 1.85113 21.5354 0.383401C19.896 0.103453 16.909 -0.208491 15.3655 0.187435C15.2747 0.212041 15.1917 0.259635 15.1246 0.325629C15.0575 0.391624 15.0086 0.473794 14.9825 0.564217C14.9563 0.65464 14.954 0.750267 14.9755 0.841881C14.9971 0.933495 15.0419 1.01801 15.1056 1.08727Z" fill="white"/>
<path d="M53.0491 20.9761H50.3057V9.10629H53.0491V20.9761Z" fill="white"/>
<path d="M56.9443 20.9761V9.10629H59.3439L65.7747 16.7569V9.10629H68.5142V20.9761H66.1146L59.6878 13.2855V20.9761H56.9443Z" fill="white"/>
<path d="M77.1444 9.10629V17.1968C77.1444 18.0846 77.0924 19.4044 76.1126 20.3642C75.7779 20.6763 75.3826 20.9162 74.9512 21.0689C74.5198 21.2216 74.0616 21.284 73.6051 21.252C72.9484 21.2925 72.2938 21.1454 71.7174 20.8281C71.2955 20.5537 70.9179 20.2166 70.5977 19.8283L72.3053 17.9086C72.4192 18.146 72.563 18.3678 72.7333 18.5685C72.8213 18.6572 72.9269 18.7265 73.0433 18.772C73.1597 18.8175 73.2843 18.8381 73.4091 18.8325C73.5273 18.8388 73.6454 18.8199 73.7557 18.7772C73.866 18.7345 73.966 18.6688 74.049 18.5845C74.389 18.2446 74.4049 17.6767 74.4049 17.1808V9.10629H77.1444Z" fill="white"/>
<path d="M87.6989 11.4179H83.7317V13.7134H87.507V16.029H83.7317V18.6605H87.6989V20.9761H80.9922V9.10629H87.6989V11.4179Z" fill="white"/>
<path d="M99.7487 20.6002C98.9436 21.0275 98.0447 21.2475 97.1332 21.24C94.9456 21.24 93.4699 20.4962 92.4701 19.5164C91.2863 18.3237 90.6221 16.7115 90.6221 15.0312C90.6221 13.3509 91.2863 11.7386 92.4701 10.546C93.6701 9.42171 95.261 8.80916 96.9052 8.83835C97.8883 8.85735 98.8567 9.08071 99.7487 9.49423V12.6656C99.4005 12.2722 98.9735 11.9564 98.4953 11.7386C98.0172 11.5209 97.4986 11.4062 96.9732 11.4019C96.532 11.3894 96.0928 11.4647 95.6809 11.6233C95.269 11.7819 94.8926 12.0206 94.5737 12.3257C94.2131 12.6841 93.9281 13.1112 93.7358 13.5818C93.5434 14.0524 93.4475 14.5568 93.4539 15.0652C93.4365 15.5425 93.5178 16.0183 93.6925 16.4629C93.8673 16.9074 94.1318 17.3112 94.4695 17.6489C94.8073 17.9867 95.211 18.2512 95.6555 18.4259C96.1001 18.6006 96.5759 18.6819 97.0532 18.6645C97.5666 18.6577 98.073 18.5452 98.5409 18.334C99.0088 18.1227 99.4281 17.8173 99.7727 17.4367L99.7487 20.6002Z" fill="white"/>
<path d="M107.351 11.4179V20.9761H104.612V11.4179H102.028V9.10629H109.931V11.4179H107.351Z" fill="white"/>
<path d="M115.413 20.9761H112.674V9.10629H115.413V20.9761Z" fill="white"/>
<path d="M121.04 9.10629L124.048 16.7049L127.051 9.10629H130.007L124.972 20.9761H123.12L118.085 9.10629H121.04Z" fill="white"/>
<path d="M139.333 11.4179H135.365V13.7134H139.137V16.029H135.365V18.6605H139.333V20.9761H132.626V9.10629H139.333V11.4179Z" fill="white"/>
<path d="M52.4531 28.3947H53.253C53.6947 28.4316 54.1338 28.2986 54.4807 28.0228C54.603 27.8929 54.6984 27.7403 54.7615 27.5735C54.8246 27.4067 54.8543 27.2292 54.8487 27.0509C54.8561 26.8743 54.8272 26.698 54.764 26.533C54.7007 26.3679 54.6043 26.2175 54.4807 26.0911C54.1211 25.8069 53.6651 25.6736 53.209 25.7192H52.4411L52.4531 28.3947ZM53.6529 23.8595C54.5854 23.7907 55.5095 24.0763 56.2404 24.6594C56.5671 24.9641 56.8225 25.3371 56.9885 25.7519C57.1544 26.1667 57.2267 26.613 57.2002 27.0589C57.2224 27.4824 57.1592 27.906 57.0142 28.3045C56.8692 28.703 56.6455 29.0683 56.3564 29.3785C56.0188 29.6867 55.6221 29.9229 55.1903 30.0728C54.7585 30.2227 54.3007 30.2831 53.8449 30.2503H52.4571V33.7057H50.1855V23.8475L53.6529 23.8595Z" fill="white"/>
<path d="M63.1193 28.3227H63.6352C64.1271 28.3646 64.6157 28.2108 64.995 27.8948C65.1165 27.7669 65.2115 27.6163 65.2747 27.4516C65.3378 27.2869 65.3678 27.1113 65.3629 26.935C65.3722 26.743 65.3353 26.5517 65.2553 26.377C65.1753 26.2023 65.0544 26.0494 64.903 25.9311C64.5265 25.7039 64.0903 25.5952 63.6512 25.6192H63.1193V28.3227ZM64.2991 23.8475C65.2159 23.7942 66.1172 24.1014 66.8106 24.7034C67.0956 24.9924 67.3185 25.3366 67.4656 25.7148C67.6128 26.0931 67.6812 26.4974 67.6665 26.903C67.6815 27.271 67.6211 27.6382 67.489 27.9821C67.357 28.3259 67.1561 28.6392 66.8986 28.9026C66.513 29.2661 66.0408 29.5249 65.5269 29.6545L68.5503 33.6857H65.7748L63.1193 29.8024V33.6857H60.8438V23.8475H64.2991Z" fill="white"/>
<path d="M74.7855 26.563C74.4939 26.8551 74.265 27.2037 74.113 27.5875C73.961 27.9713 73.8891 28.3821 73.9017 28.7946C73.8858 29.2052 73.9562 29.6146 74.1084 29.9962C74.2607 30.3779 74.4914 30.7233 74.7855 31.0102C75.0663 31.2778 75.3977 31.4864 75.7604 31.6238C76.1231 31.7612 76.5096 31.8245 76.8971 31.8101C77.3007 31.8309 77.7041 31.7675 78.0818 31.6239C78.4594 31.4803 78.8031 31.2597 79.0909 30.976C79.3786 30.6924 79.6042 30.352 79.7533 29.9764C79.9023 29.6009 79.9715 29.1984 79.9566 28.7946C79.9744 27.9714 79.6652 27.1747 79.0967 26.579C78.5078 26.0328 77.7324 25.7323 76.9291 25.7392C76.1341 25.7212 75.3639 26.0172 74.7855 26.563ZM80.7844 25.0593C81.2711 25.5458 81.6572 26.1235 81.9207 26.7593C82.1841 27.395 82.3197 28.0765 82.3197 28.7646C82.3197 29.4528 82.1841 30.1343 81.9207 30.77C81.6572 31.4058 81.2711 31.9834 80.7844 32.4699C80.2776 32.953 79.6794 33.3299 79.0249 33.5785C78.3704 33.8271 77.6728 33.9424 76.9731 33.9177C75.553 33.9574 74.1741 33.4375 73.1338 32.4699C72.639 31.9952 72.2464 31.4242 71.9803 30.7922C71.7141 30.1602 71.58 29.4804 71.5861 28.7946C71.6015 27.4001 72.1461 26.0634 73.1099 25.0553C74.1709 24.1282 75.5321 23.6173 76.9411 23.6173C78.3502 23.6173 79.7114 24.1282 80.7724 25.0553L80.7844 25.0593Z" fill="white"/>
<path d="M89.3624 25.7672V33.6977H87.0909V25.7672H84.9473V23.8475H91.506V25.7672H89.3624Z" fill="white"/>
<path d="M97.3686 26.563C97.0791 26.8561 96.8525 27.2052 96.7026 27.5889C96.5527 27.9726 96.4826 28.3829 96.4968 28.7946C96.4836 29.2063 96.5569 29.6162 96.7119 29.9978C96.8669 30.3794 97.1002 30.7243 97.3966 31.0102C97.6773 31.2778 98.0088 31.4864 98.3715 31.6238C98.7342 31.7612 99.1207 31.8245 99.5082 31.8101C99.9107 31.8247 100.312 31.7579 100.688 31.6136C101.064 31.4693 101.407 31.2504 101.696 30.9702C101.979 30.6847 102.201 30.3446 102.348 29.9705C102.495 29.5965 102.564 29.1964 102.552 28.7946C102.571 27.9719 102.263 27.1751 101.696 26.579C101.105 26.0335 100.328 25.7333 99.5242 25.7392C98.725 25.7176 97.9497 26.0139 97.3686 26.563ZM103.368 25.0593C103.854 25.5458 104.24 26.1235 104.504 26.7593C104.767 27.395 104.903 28.0765 104.903 28.7646C104.903 29.4528 104.767 30.1343 104.504 30.77C104.24 31.4058 103.854 31.9834 103.368 32.4699C102.861 32.9527 102.264 33.3294 101.61 33.578C100.956 33.8266 100.259 33.9421 99.5602 33.9177C98.1398 33.9592 96.7603 33.439 95.7209 32.4699C95.2239 31.9964 94.8293 31.4259 94.5617 30.7937C94.2941 30.1615 94.1592 29.4811 94.1652 28.7946C94.1795 27.4006 94.7227 26.0641 95.6849 25.0553C96.746 24.1282 98.1072 23.6173 99.5162 23.6173C100.925 23.6173 102.286 24.1282 103.348 25.0553L103.368 25.0593Z" fill="white"/>
<path d="M115.918 33.3858C115.251 33.7398 114.506 33.9225 113.75 33.9177C111.931 33.9177 110.707 33.2978 109.879 32.4859C108.895 31.4974 108.343 30.1594 108.343 28.7646C108.343 27.3699 108.895 26.0319 109.879 25.0433C110.874 24.11 112.194 23.602 113.558 23.6276C114.374 23.6431 115.178 23.8283 115.918 24.1715V26.795C115.629 26.4684 115.275 26.206 114.878 26.0248C114.481 25.8437 114.051 25.7477 113.614 25.7432C113.247 25.7319 112.881 25.794 112.537 25.9258C112.194 26.0577 111.88 26.2566 111.615 26.511C111.313 26.8089 111.074 27.1647 110.912 27.5571C110.751 27.9494 110.67 28.3703 110.675 28.7946C110.659 29.1913 110.726 29.587 110.87 29.9569C111.014 30.3268 111.233 30.6631 111.513 30.9445C111.793 31.226 112.128 31.4468 112.497 31.5929C112.866 31.7391 113.262 31.8076 113.658 31.7941C114.083 31.7905 114.503 31.7 114.892 31.5281C115.28 31.3561 115.63 31.1064 115.918 30.7942V33.3858Z" fill="white"/>
<path d="M122.697 26.563C122.408 26.8565 122.182 27.2057 122.033 27.5894C121.884 27.9731 121.814 28.3832 121.829 28.7946C121.815 29.2064 121.888 29.6165 122.043 29.9982C122.198 30.3799 122.432 30.7247 122.729 31.0102C123.009 31.2778 123.341 31.4864 123.704 31.6238C124.066 31.7612 124.453 31.8245 124.84 31.8101C125.243 31.8286 125.644 31.7635 126.02 31.6189C126.396 31.4743 126.737 31.2533 127.023 30.9699C127.309 30.6865 127.534 30.3469 127.682 29.9725C127.83 29.5981 127.899 29.197 127.884 28.7946C127.902 27.9714 127.592 27.1747 127.024 26.579C126.435 26.0328 125.66 25.7323 124.856 25.7392C124.056 25.7169 123.279 26.0132 122.697 26.563ZM128.696 25.0593C129.182 25.5458 129.568 26.1235 129.832 26.7593C130.095 27.395 130.231 28.0765 130.231 28.7646C130.231 29.4528 130.095 30.1343 129.832 30.77C129.568 31.4058 129.182 31.9834 128.696 32.4699C128.189 32.953 127.591 33.3299 126.936 33.5785C126.282 33.8271 125.584 33.9424 124.884 33.9177C123.464 33.9574 122.085 33.4375 121.045 32.4699C120.549 31.9955 120.156 31.4247 119.889 30.7927C119.622 30.1606 119.488 29.4807 119.493 28.7946C119.509 27.4001 120.053 26.0634 121.017 25.0553C122.078 24.1282 123.439 23.6173 124.848 23.6173C126.257 23.6173 127.619 24.1282 128.68 25.0553L128.696 25.0593Z" fill="white"/>
<path d="M136.405 23.8475V31.7781H139.461V33.6977H134.13V23.8475H136.405Z" fill="white"/>
</svg>
