<svg width="140" height="40" viewBox="0 0 140 40" fill="none" xmlns="http://www.w3.org/2000/svg">
<path d="M25.8984 38.9127C25.8211 38.8145 25.7098 38.7489 25.5865 38.7287C23.258 38.2346 21.02 37.3834 18.9517 36.2052C14.7045 33.7337 11.997 29.9944 11.893 25.7352C11.8636 24.1113 12.1984 22.5015 12.8728 21.024C13.3048 20.0642 15.6243 16.6249 16.0083 15.997C17.588 13.5214 17.0801 13.6774 14.8565 10.586L11.6571 5.84688L9.49347 2.69147C8.25448 3.53526 7.08072 4.47106 5.98213 5.49094C3.74424 7.73607 2.05739 10.4695 1.05409 13.4765C0.0507853 16.4835 -0.241648 19.6822 0.199762 22.8213C0.641172 25.9604 1.8044 28.9544 3.59808 31.5681C5.39175 34.1818 7.76701 36.344 10.5373 37.8849C3.41061 32.6619 0.159213 24.8313 2.8867 16.9328C3.63113 14.8132 4.72022 12.8309 6.1101 11.0659L8.45366 14.5133C8.58799 14.7128 8.65501 14.95 8.64493 15.1903C8.63486 15.4306 8.54822 15.6614 8.39767 15.849C7.27863 17.2215 6.40588 18.7776 5.81816 20.4482C2.82272 29.1425 10.9172 38.1488 19.4676 39.6166C21.1073 39.8965 24.0947 40.2085 25.6385 39.8125C25.7293 39.7879 25.8123 39.7403 25.8794 39.6743C25.9465 39.6083 25.9955 39.5262 26.0216 39.4358C26.0477 39.3453 26.0501 39.2497 26.0285 39.1581C26.0069 39.0665 25.9621 38.982 25.8984 38.9127Z" fill="url(#paint0_linear)"/>
<path d="M15.1056 1.08727C15.1829 1.18542 15.2942 1.25106 15.4175 1.27124C17.7456 1.76537 19.9833 2.6166 22.0513 3.79476C26.2978 6.2663 29.0049 10.0056 29.1089 14.2648C29.1383 15.8887 28.8036 17.4985 28.1292 18.9759C27.6973 19.9357 25.3781 23.3751 24.9943 24.003C23.4148 26.4785 23.9226 26.3226 26.1459 29.414L29.3448 34.1531L31.5081 37.3085C32.7469 36.4647 33.9204 35.5289 35.0189 34.509C37.2564 32.2639 38.943 29.5305 39.9461 26.5235C40.9493 23.5165 41.2417 20.3178 40.8003 17.1787C40.359 14.0396 39.1959 11.0456 37.4025 8.4319C35.6092 5.8182 33.2342 3.65597 30.4644 2.11508C37.59 7.3381 40.8409 15.1686 38.1138 23.0672C37.3695 25.1868 36.2806 27.1691 34.8909 28.9341L32.5477 25.4867C32.4134 25.2872 32.3464 25.05 32.3565 24.8096C32.3665 24.5693 32.4532 24.3385 32.6037 24.151C33.7226 22.7784 34.5952 21.2224 35.1828 19.5518C38.1778 10.8574 30.0845 1.85113 21.5354 0.383401C19.896 0.103453 16.909 -0.208491 15.3655 0.187435C15.2747 0.212041 15.1917 0.259635 15.1246 0.325629C15.0575 0.391624 15.0086 0.473794 14.9825 0.564217C14.9563 0.65464 14.954 0.750267 14.9755 0.841881C14.9971 0.933495 15.0419 1.01801 15.1056 1.08727Z" fill="url(#paint1_linear)"/>
<path d="M53.0491 20.9761H50.3057V9.10632H53.0491V20.9761Z" fill="#1A202C"/>
<path d="M56.9443 20.9761V9.10632H59.3439L65.7747 16.7569V9.10632H68.5142V20.9761H66.1146L59.6878 13.2855V20.9761H56.9443Z" fill="#1A202C"/>
<path d="M77.1444 9.10632V17.1968C77.1444 18.0846 77.0924 19.4044 76.1126 20.3642C75.7779 20.6763 75.3826 20.9162 74.9512 21.0689C74.5198 21.2217 74.0616 21.284 73.6051 21.2521C72.9484 21.2925 72.2938 21.1455 71.7174 20.8281C71.2955 20.5538 70.9179 20.2166 70.5977 19.8283L72.3053 17.9087C72.4192 18.146 72.563 18.3678 72.7333 18.5686C72.8213 18.6573 72.9269 18.7266 73.0433 18.772C73.1597 18.8175 73.2843 18.8381 73.4091 18.8325C73.5273 18.8388 73.6454 18.82 73.7557 18.7772C73.866 18.7345 73.966 18.6688 74.049 18.5846C74.389 18.2446 74.4049 17.6767 74.4049 17.1808V9.10632H77.1444Z" fill="#1A202C"/>
<path d="M87.6989 11.4179H83.7317V13.7135H87.507V16.029H83.7317V18.6605H87.6989V20.9761H80.9922V9.10632H87.6989V11.4179Z" fill="#1A202C"/>
<path d="M99.7487 20.6001C98.9436 21.0275 98.0447 21.2475 97.1332 21.24C94.9456 21.24 93.4699 20.4962 92.4701 19.5163C91.2863 18.3237 90.6221 16.7115 90.6221 15.0312C90.6221 13.3508 91.2863 11.7386 92.4701 10.546C93.6701 9.42169 95.261 8.80915 96.9052 8.83834C97.8883 8.85734 98.8567 9.0807 99.7487 9.49422V12.6656C99.4005 12.2722 98.9735 11.9563 98.4953 11.7386C98.0172 11.5209 97.4986 11.4062 96.9732 11.4019C96.532 11.3894 96.0928 11.4647 95.6809 11.6233C95.269 11.7818 94.8926 12.0206 94.5737 12.3257C94.2131 12.684 93.9281 13.1112 93.7358 13.5818C93.5434 14.0524 93.4475 14.5568 93.4539 15.0652C93.4365 15.5425 93.5178 16.0183 93.6925 16.4628C93.8673 16.9074 94.1318 17.3111 94.4695 17.6489C94.8073 17.9866 95.211 18.2511 95.6555 18.4259C96.1001 18.6006 96.5759 18.6819 97.0532 18.6645C97.5666 18.6577 98.073 18.5452 98.5409 18.334C99.0088 18.1227 99.4281 17.8173 99.7727 17.4367L99.7487 20.6001Z" fill="#1A202C"/>
<path d="M107.351 11.4179V20.9761H104.612V11.4179H102.028V9.10632H109.931V11.4179H107.351Z" fill="#1A202C"/>
<path d="M115.413 20.9761H112.674V9.10632H115.413V20.9761Z" fill="#1A202C"/>
<path d="M121.04 9.10632L124.048 16.7049L127.051 9.10632H130.007L124.972 20.9761H123.12L118.085 9.10632H121.04Z" fill="#1A202C"/>
<path d="M139.333 11.4179H135.365V13.7135H139.137V16.029H135.365V18.6605H139.333V20.9761H132.626V9.10632H139.333V11.4179Z" fill="#1A202C"/>
<path d="M52.4531 28.3946H53.253C53.6947 28.4316 54.1338 28.2985 54.4807 28.0227C54.603 27.8929 54.6984 27.7402 54.7615 27.5734C54.8246 27.4067 54.8543 27.2291 54.8487 27.0509C54.8561 26.8743 54.8272 26.698 54.764 26.5329C54.7007 26.3679 54.6043 26.2175 54.4807 26.0911C54.1211 25.8069 53.6651 25.6735 53.209 25.7191H52.4411L52.4531 28.3946ZM53.6529 23.8595C54.5854 23.7906 55.5095 24.0763 56.2404 24.6593C56.5671 24.964 56.8225 25.3371 56.9885 25.7518C57.1544 26.1666 57.2267 26.6129 57.2002 27.0589C57.2224 27.4824 57.1592 27.906 57.0142 28.3045C56.8692 28.703 56.6455 29.0682 56.3564 29.3784C56.0188 29.6866 55.6221 29.9228 55.1903 30.0727C54.7585 30.2226 54.3007 30.283 53.8449 30.2503H52.4571V33.7056H50.1855V23.8475L53.6529 23.8595Z" fill="#1A202C"/>
<path d="M63.1193 28.3227H63.6352C64.1271 28.3646 64.6157 28.2108 64.995 27.8948C65.1165 27.7669 65.2115 27.6163 65.2747 27.4516C65.3378 27.2869 65.3678 27.1113 65.3629 26.935C65.3722 26.7431 65.3353 26.5517 65.2553 26.377C65.1753 26.2023 65.0544 26.0494 64.903 25.9312C64.5265 25.704 64.0903 25.5953 63.6512 25.6192H63.1193V28.3227ZM64.2991 23.8476C65.2159 23.7942 66.1172 24.1014 66.8106 24.7034C67.0956 24.9924 67.3185 25.3366 67.4656 25.7148C67.6128 26.0931 67.6812 26.4974 67.6665 26.903C67.6815 27.271 67.6211 27.6382 67.489 27.9821C67.357 28.3259 67.1561 28.6392 66.8986 28.9026C66.513 29.2661 66.0408 29.5249 65.5269 29.6545L68.5503 33.6857H65.7748L63.1193 29.8024V33.6857H60.8438V23.8476H64.2991Z" fill="#1A202C"/>
<path d="M74.7855 26.5631C74.4939 26.8551 74.265 27.2038 74.113 27.5875C73.961 27.9713 73.8891 28.3821 73.9017 28.7947C73.8858 29.2053 73.9562 29.6146 74.1084 29.9963C74.2607 30.3779 74.4914 30.7234 74.7855 31.0102C75.0663 31.2778 75.3977 31.4865 75.7604 31.6239C76.1231 31.7612 76.5096 31.8246 76.8971 31.8101C77.3007 31.8309 77.7041 31.7675 78.0818 31.6239C78.4594 31.4803 78.8031 31.2597 79.0909 30.9761C79.3786 30.6924 79.6042 30.352 79.7533 29.9765C79.9023 29.6009 79.9715 29.1984 79.9566 28.7947C79.9744 27.9715 79.6652 27.1747 79.0967 26.5791C78.5078 26.0328 77.7324 25.7323 76.9291 25.7392C76.1341 25.7212 75.3639 26.0172 74.7855 26.5631V26.5631ZM80.7844 25.0594C81.2711 25.5459 81.6572 26.1235 81.9207 26.7593C82.1841 27.3951 82.3197 28.0765 82.3197 28.7647C82.3197 29.4528 82.1841 30.1343 81.9207 30.77C81.6572 31.4058 81.2711 31.9835 80.7844 32.47C80.2776 32.953 79.6794 33.3299 79.0249 33.5785C78.3704 33.8271 77.6728 33.9424 76.9731 33.9177C75.553 33.9574 74.1741 33.4375 73.1338 32.47C72.639 31.9952 72.2464 31.4242 71.9803 30.7922C71.7141 30.1602 71.58 29.4804 71.5861 28.7947C71.6015 27.4001 72.1461 26.0635 73.1099 25.0554C74.1709 24.1283 75.5321 23.6174 76.9411 23.6174C78.3502 23.6174 79.7114 24.1283 80.7724 25.0554L80.7844 25.0594Z" fill="#1A202C"/>
<path d="M89.3624 25.7671V33.6976H87.0909V25.7671H84.9473V23.8475H91.506V25.7671H89.3624Z" fill="#1A202C"/>
<path d="M97.3696 26.5631C97.0801 26.8562 96.8535 27.2052 96.7035 27.589C96.5536 27.9727 96.4836 28.3829 96.4978 28.7947C96.4846 29.2063 96.5579 29.6162 96.7129 29.9978C96.8679 30.3794 97.1011 30.7243 97.3976 31.0102C97.6783 31.2778 98.0098 31.4865 98.3725 31.6239C98.7351 31.7612 99.1217 31.8246 99.5092 31.8101C99.9116 31.8248 100.313 31.7579 100.689 31.6136C101.065 31.4693 101.408 31.2505 101.697 30.9703C101.98 30.6847 102.202 30.3446 102.349 29.9705C102.496 29.5965 102.565 29.1964 102.553 28.7947C102.572 27.9719 102.264 27.1751 101.697 26.5791C101.106 26.0336 100.329 25.7333 99.5252 25.7392C98.7259 25.7176 97.9507 26.0139 97.3696 26.5631V26.5631ZM103.368 25.0594C103.855 25.5459 104.241 26.1235 104.505 26.7593C104.768 27.3951 104.904 28.0765 104.904 28.7647C104.904 29.4528 104.768 30.1343 104.505 30.77C104.241 31.4058 103.855 31.9835 103.368 32.47C102.862 32.9527 102.265 33.3294 101.611 33.578C100.957 33.8267 100.26 33.9421 99.5612 33.9177C98.1408 33.9592 96.7613 33.439 95.7219 32.47C95.2249 31.9965 94.8303 31.4259 94.5627 30.7937C94.2951 30.1615 94.1602 29.4811 94.1662 28.7947C94.1805 27.4007 94.7237 26.0641 95.6859 25.0554C96.747 24.1283 98.1082 23.6174 99.5172 23.6174C100.926 23.6174 102.287 24.1283 103.348 25.0554L103.368 25.0594Z" fill="#1A202C"/>
<path d="M115.917 33.3857C115.25 33.7397 114.505 33.9225 113.749 33.9176C111.93 33.9176 110.706 33.2978 109.878 32.4859C108.894 31.4974 108.342 30.1594 108.342 28.7646C108.342 27.3698 108.894 26.0318 109.878 25.0433C110.873 24.11 112.193 23.602 113.557 23.6276C114.373 23.6431 115.177 23.8283 115.917 24.1715V26.795C115.628 26.4683 115.274 26.206 114.877 26.0248C114.48 25.8436 114.05 25.7477 113.613 25.7432C113.246 25.7319 112.88 25.794 112.536 25.9258C112.193 26.0576 111.879 26.2566 111.614 26.511C111.312 26.8089 111.073 27.1647 110.911 27.5571C110.75 27.9494 110.669 28.3703 110.674 28.7946C110.658 29.1913 110.725 29.587 110.869 29.9569C111.013 30.3268 111.232 30.663 111.512 30.9445C111.792 31.226 112.127 31.4467 112.496 31.5929C112.865 31.7391 113.261 31.8075 113.657 31.794C114.082 31.7905 114.502 31.7 114.891 31.5281C115.279 31.3561 115.629 31.1064 115.917 30.7942V33.3857Z" fill="#1A202C"/>
<path d="M122.697 26.5631C122.408 26.8565 122.182 27.2057 122.033 27.5894C121.884 27.9731 121.814 28.3832 121.829 28.7947C121.815 29.2064 121.888 29.6165 122.043 29.9982C122.198 30.38 122.432 30.7248 122.729 31.0102C123.009 31.2778 123.341 31.4865 123.704 31.6239C124.066 31.7612 124.453 31.8246 124.84 31.8101C125.243 31.8286 125.644 31.7635 126.02 31.6189C126.396 31.4743 126.737 31.2533 127.023 30.9699C127.309 30.6865 127.534 30.3469 127.682 29.9725C127.83 29.5981 127.899 29.197 127.884 28.7947C127.902 27.9715 127.592 27.1747 127.024 26.5791C126.435 26.0328 125.66 25.7323 124.856 25.7392C124.056 25.717 123.279 26.0133 122.697 26.5631V26.5631ZM128.696 25.0594C129.182 25.5459 129.568 26.1235 129.832 26.7593C130.095 27.3951 130.231 28.0765 130.231 28.7647C130.231 29.4528 130.095 30.1343 129.832 30.77C129.568 31.4058 129.182 31.9835 128.696 32.47C128.189 32.953 127.591 33.3299 126.936 33.5785C126.282 33.8271 125.584 33.9424 124.884 33.9177C123.464 33.9574 122.085 33.4375 121.045 32.47C120.549 31.9955 120.156 31.4247 119.889 30.7927C119.622 30.1606 119.488 29.4807 119.493 28.7947C119.509 27.4001 120.053 26.0635 121.017 25.0554C122.078 24.1283 123.439 23.6174 124.848 23.6174C126.257 23.6174 127.619 24.1283 128.68 25.0554L128.696 25.0594Z" fill="#1A202C"/>
<path d="M136.405 23.8475V31.778H139.461V33.6976H134.13V23.8475H136.405Z" fill="#1A202C"/>
<defs>
<linearGradient id="paint0_linear" x1="7.66581" y1="36.2252" x2="22.643" y2="10.2821" gradientUnits="userSpaceOnUse">
<stop stop-color="#174E5B"/>
<stop offset="0.07" stop-color="#195A6C"/>
<stop offset="0.21" stop-color="#1E779A"/>
<stop offset="0.4" stop-color="#27A7E3"/>
<stop offset="0.47" stop-color="#2ABAFF"/>
<stop offset="0.7" stop-color="#1DDAF0"/>
<stop offset="1" stop-color="#0EFFE0"/>
</linearGradient>
<linearGradient id="paint1_linear" x1="33.3354" y1="3.77477" x2="18.3571" y2="29.7159" gradientUnits="userSpaceOnUse">
<stop stop-color="#174E5B"/>
<stop offset="0.07" stop-color="#195A6C"/>
<stop offset="0.21" stop-color="#1E779A"/>
<stop offset="0.4" stop-color="#27A7E3"/>
<stop offset="0.47" stop-color="#2ABAFF"/>
<stop offset="0.7" stop-color="#1DDAF0"/>
<stop offset="1" stop-color="#0EFFE0"/>
</linearGradient>
</defs>
</svg>
