<svg width="48" height="48" viewBox="0 0 48 48" fill="none" xmlns="http://www.w3.org/2000/svg">
<path d="M6 12L12 14M12 14L6 32C7.7314 33.2981 9.83703 33.9998 12.001 33.9998C14.165 33.9998 16.2706 33.2981 18.002 32L12 14ZM12 14L18 32M12 14L24 10M24 10L36 14M24 10V6M24 10V42M36 14L42 12M36 14L30 32C31.7314 33.2981 33.837 33.9998 36.001 33.9998C38.165 33.9998 40.2706 33.2981 42.002 32L36 14ZM24 42H18M24 42H30" stroke="#805AD5" stroke-width="2" stroke-linecap="round" stroke-linejoin="round"/>
</svg>
