<?xml version="1.0" standalone="no"?>
<!DOCTYPE svg PUBLIC "-//W3C//DTD SVG 20010904//EN"
 "http://www.w3.org/TR/2001/REC-SVG-20010904/DTD/svg10.dtd">
<svg version="1.0" xmlns="http://www.w3.org/2000/svg"
 width="164.000000pt" height="164.000000pt" viewBox="0 0 164.000000 164.000000"
 preserveAspectRatio="xMidYMid meet">
<metadata>
Created by potrace 1.11, written by Peter Selinger 2001-2013
</metadata>
<g transform="translate(0.000000,164.000000) scale(0.100000,-0.100000)"
fill="#000000" stroke="none">
<path d="M617 1614 c-41 -12 -10 -37 83 -68 116 -39 177 -70 257 -130 177
-134 247 -330 183 -514 -11 -29 -54 -108 -96 -174 -49 -76 -77 -130 -77 -148
0 -19 23 -61 70 -126 38 -55 102 -147 141 -206 39 -58 76 -109 81 -112 11 -7
109 70 164 129 84 89 159 228 194 356 24 89 23 309 -1 399 -48 181 -181 373
-325 469 -27 18 -21 9 25 -36 231 -228 302 -499 202 -773 -23 -61 -107 -210
-120 -210 -4 0 -25 26 -46 58 -69 101 -68 94 -22 161 23 33 53 88 68 123 23
56 26 76 26 178 0 97 -4 124 -23 175 -81 204 -273 371 -498 430 -59 16 -253
28 -286 19z"/>
<path d="M309 1459 c-207 -166 -314 -398 -305 -664 7 -183 58 -327 165 -469
58 -77 83 -101 166 -164 l60 -45 -65 64 c-242 237 -312 515 -200 800 23 57
100 189 111 189 9 0 51 -56 81 -110 27 -47 26 -62 -3 -93 -24 -26 -75 -130
-94 -192 -49 -165 13 -368 159 -519 145 -150 287 -216 502 -232 102 -8 154 0
154 24 0 13 -17 22 -67 36 -208 55 -388 190 -457 340 -30 65 -39 107 -38 178
1 109 20 158 125 321 43 67 70 120 70 136 0 15 -14 48 -31 72 -18 24 -77 112
-133 194 -141 209 -123 196 -200 134z"/>
</g>
</svg>
